<svg xmlns="http://www.w3.org/2000/svg" viewBox="0 0 64 64" role="img" aria-label="Tremor Dashboard icon">
  <defs>
    <linearGradient id="g" x1="0%" y1="0%" x2="100%" y2="100%">
      <stop offset="0%" stop-color="#4f46e5" />
      <stop offset="100%" stop-color="#22d3ee" />
    </linearGradient>
  </defs>
  <rect width="64" height="64" rx="12" fill="url(#g)" />
  <path d="M16 42c6-1.5 10-7 16-7s10 5.5 16 7V22c-6 1.5-10 7-16 7s-10-5.5-16-7z" fill="#0f172a" fill-opacity="0.16" />
  <path d="M18 42c5-2.2 8.5-7 14-7 5.5 0 9 4.8 14 7V22c-5 2.2-8.5 7-14 7-5.5 0-9-4.8-14-7z" fill="#eef2ff" />
  <circle cx="32" cy="32" r="6" fill="#0f172a" fill-opacity="0.72" />
</svg>
